# xmcd
# Track frame offsets:
# 150
# 14683
# 26515
# 44867
# 63758
# 79611
# 93672
# 104493
# 116850
# 135876
# 152029
# 165988
# 180090
# 197075
# 212921
#
# Disc length: 3081 seconds
# Revision: 0
# Processed by: cddbd v1.5.1PL0 Copyright (c) Steve Scherf et al.
# Submitted via: VisiTrax 2.9.10.228 - For more info visit www.synapsa.com
#
DISCID=c40c070f
DTITLE=Gayle, Crystal - CB90070
DYEAR=1900
DGENRE=Karoake
TTITLE0=Why Have You Left The One You Left Me For
TTITLE1=Don't It Make My Brown Eyes Blue
TTITLE2=You Never Miss A Real Good Thing
TTITLE3=Cry
TTITLE4=If You Ever Change Your Mind
TTITLE5=I'll Get Over You
TTITLE6=Ready For The Times To Get Better
TTITLE7=Somebody Loves You
TTITLE8=Half The Way
TTITLE9=When I Dream
TTITLE10=I'll Do It All Over Again
TTITLE11=Talking In Your Sleep
TTITLE12=It's Like We Never Said Goodbye
TTITLE13=Blue Side, The
TTITLE14=Too Many Lovers
EXTD=
EXTT0=
EXTT1=
EXTT2=
EXTT3=
EXTT4=
EXTT5=
EXTT6=
EXTT7=
EXTT8=
EXTT9=
EXTT10=
EXTT11=
EXTT12=
EXTT13=
EXTT14=
PLAYORDER=
